  <svg
    width="45"
    height="45"
    viewBox="0 0 45 45"
    fill="none"
    xmlns="http://www.w3.org/2000/svg"
  >
    <path
      fill-rule="evenodd"
      clip-rule="evenodd"
      d="M32.7954 17.3663C32.5197 17.0914 32.0718 17.0914 31.7961 17.3663L23.0097 26.1435L14.206 17.3663C13.9303 17.0914 13.4824 17.0914 13.2067 17.3663C12.9311 17.6411 12.9311 18.0877 13.2067 18.3625L22.4928 27.6207C22.6306 27.7581 22.8029 27.8268 22.9924 27.8268C23.1647 27.8268 23.3542 27.7581 23.4921 27.6207L32.7781 18.3625C33.071 18.0877 33.071 17.6411 32.7954 17.3663Z"
      fill="#808080"
    />
    <mask
      id="mask0_7_64456"
      style="mask-type:alpha"
      maskUnits="userSpaceOnUse"
      x="13"
      y="17"
      width="20"
      height="11"
    >
      <path
        fill-rule="evenodd"
        clip-rule="evenodd"
        d="M32.7954 17.3663C32.5197 17.0914 32.0718 17.0914 31.7961 17.3663L23.0097 26.1435L14.206 17.3663C13.9303 17.0914 13.4824 17.0914 13.2067 17.3663C12.9311 17.6411 12.9311 18.0877 13.2067 18.3625L22.4928 27.6207C22.6306 27.7581 22.8029 27.8268 22.9924 27.8268C23.1647 27.8268 23.3542 27.7581 23.4921 27.6207L32.7781 18.3625C33.071 18.0877 33.071 17.6411 32.7954 17.3663Z"
        fill="white"
      />
    </mask>
    <g mask="url(#mask0_7_64456)">
      <rect width="45" height="45" fill="black" />
    </g>
  </svg>
