<?xml version="1.0" encoding="UTF-8"?>
<svg xmlns="http://www.w3.org/2000/svg" xmlns:xlink="http://www.w3.org/1999/xlink" width="60" height="60" viewBox="0 0 201.4 192.83" version="1.1">
<defs>
<clipPath id="clip1">
  <path d="M 0 0 L 201.398438 0 L 201.398438 192.828125 L 0 192.828125 Z M 0 0 "/>
</clipPath>
</defs>
<g id="surface1">
<g clip-path="url(#clip1)" clip-rule="nonzero">
<path style=" stroke:none;fill-rule:nonzero;fill:rgb(16.499329%,17.999268%,34.498596%);fill-opacity:1;" d="M 201.398438 177.917969 C 201.398438 186.148438 194.398438 192.828125 185.8125 192.828125 L 15.582031 192.828125 C 6.972656 192.828125 0 186.148438 0 177.917969 L 0 14.910156 C 0 6.667969 6.972656 0.00390625 15.582031 0.00390625 L 185.8125 0.00390625 C 194.398438 0.00390625 201.398438 6.667969 201.398438 14.910156 "/>
<path style=" stroke:none;fill-rule:nonzero;fill:rgb(8.999634%,14.099121%,35.299683%);fill-opacity:1;" d="M 201.398438 177.917969 C 201.398438 186.148438 194.398438 192.828125 185.804688 192.828125 L 15.582031 192.828125 C 6.972656 192.828125 0 186.148438 0 177.917969 L 0 14.910156 C 0 6.667969 6.972656 0.00390625 15.582031 0.00390625 L 185.804688 0.00390625 C 194.398438 0.00390625 201.398438 6.667969 201.398438 14.910156 "/>
</g>
<path style=" stroke:none;fill-rule:nonzero;fill:rgb(100%,100%,100%);fill-opacity:1;" d="M 31.417969 30.546875 L 31.417969 67.253906 C 31.417969 70.03125 31.144531 71.308594 30.929688 71.90625 C 30.417969 73.246094 29.480469 73.851563 27.882813 73.851563 C 26.402344 73.851563 25.257813 73.714844 24.476563 73.40625 L 23.4375 72.996094 L 21.476563 80.230469 L 22.320313 80.523438 C 24.128906 81.136719 26.039063 81.441406 28.007813 81.441406 C 36.351563 81.441406 40.753906 76.976563 40.753906 68.550781 L 40.753906 30.546875 "/>
<path style=" stroke:none;fill-rule:nonzero;fill:rgb(100%,100%,100%);fill-opacity:1;" d="M 64.335938 58.140625 C 63.296875 59.585938 61.855469 60.292969 59.964844 60.292969 C 58.066406 60.292969 56.632813 59.613281 55.566406 58.230469 C 54.429688 56.769531 53.859375 54.742188 53.859375 52.238281 C 53.859375 49.757813 54.402344 47.773438 55.464844 46.335938 C 56.441406 44.96875 57.859375 44.300781 59.757813 44.300781 C 61.6875 44.300781 63.144531 44.96875 64.203125 46.34375 C 65.296875 47.804688 65.851563 49.765625 65.851563 52.238281 C 65.851563 54.71875 65.339844 56.710938 64.335938 58.140625 M 71.136719 41.09375 C 68.363281 38.308594 64.578125 36.886719 59.878906 36.886719 C 55.277344 36.886719 51.496094 38.386719 48.679688 41.34375 C 45.890625 44.257813 44.472656 47.976563 44.472656 52.410156 C 44.472656 57.222656 46.082031 61.082031 49.238281 63.894531 C 51.960938 66.363281 55.542969 67.589844 59.824219 67.589844 C 64.480469 67.589844 68.277344 66.121094 71.089844 63.207031 C 73.894531 60.324219 75.3125 56.609375 75.3125 52.183594 C 75.3125 47.601563 73.925781 43.867188 71.136719 41.09375 "/>
<path style=" stroke:none;fill-rule:nonzero;fill:rgb(100%,100%,100%);fill-opacity:1;" d="M 114.582031 37.46875 C 111.175781 37.46875 107.804688 38.695313 104.550781 41.121094 C 102.894531 38.695313 100.257813 37.46875 96.707031 37.46875 C 93.707031 37.46875 90.601563 38.476563 87.527344 40.496094 L 86.957031 38.128906 L 79.046875 38.128906 L 79.046875 67.589844 L 88.296875 67.589844 L 88.296875 47.621094 C 90.417969 46.078125 92.425781 45.300781 94.269531 45.300781 C 95.140625 45.300781 97.445313 45.300781 97.445313 50.035156 L 97.445313 67.589844 L 106.71875 67.589844 L 106.71875 47.621094 C 108.808594 46.078125 110.816406 45.300781 112.636719 45.300781 C 114.140625 45.300781 115.847656 45.828125 115.847656 49.890625 L 115.847656 67.589844 L 125.066406 67.589844 L 125.066406 47.925781 C 125.066406 41.078125 121.429688 37.46875 114.582031 37.46875 "/>
<path style=" stroke:none;fill-rule:nonzero;fill:rgb(100%,100%,100%);fill-opacity:1;" d="M 57.382813 96.4375 L 56.035156 96.4375 L 56.035156 84.761719 L 57.257813 84.761719 C 59.472656 84.761719 61.167969 85.300781 62.324219 86.335938 C 63.472656 87.386719 64.027344 88.734375 64.027344 90.429688 C 64.027344 94.515625 61.914063 96.4375 57.382813 96.4375 M 69.171875 80.367188 C 66.402344 78.089844 62.644531 76.925781 57.996094 76.925781 L 46.707031 76.925781 L 46.707031 117.285156 L 56.035156 117.285156 L 56.035156 103.859375 L 57.078125 103.859375 C 62.550781 103.859375 66.800781 102.300781 69.746094 99.234375 C 72.179688 96.722656 73.425781 93.699219 73.425781 90.246094 C 73.425781 86.011719 71.996094 82.6875 69.171875 80.367188 "/>
<path style=" stroke:none;fill-rule:nonzero;fill:rgb(100%,100%,100%);fill-opacity:1;" d="M 88.347656 100 L 91.320313 92.304688 L 91.917969 90.714844 L 92.523438 92.417969 L 95.3125 100 Z M 95.335938 76.757813 L 88.644531 76.757813 L 72.273438 117.289063 L 81.636719 117.289063 L 85.367188 107.648438 L 98.335938 107.648438 L 102.300781 117.289063 L 112.277344 117.289063 "/>
<path style=" stroke:none;fill-rule:nonzero;fill:rgb(100%,100%,100%);fill-opacity:1;" d="M 135.472656 76.933594 L 128.851563 88.652344 C 128.074219 90.019531 127.332031 91.40625 126.640625 92.738281 C 126.050781 91.640625 125.28125 90.261719 124.296875 88.574219 L 117.675781 76.933594 L 107.300781 76.933594 L 121.726563 101.308594 L 121.726563 117.269531 L 131.0625 117.269531 L 131.0625 101.414063 L 145.488281 76.933594 "/>
<path style=" stroke:none;fill-rule:nonzero;fill:rgb(100%,100%,100%);fill-opacity:1;" d="M 132.726563 37.316406 L 132.726563 58.144531 L 152.941406 58.144531 L 152.941406 125.175781 C 152.941406 133.492188 148.902344 139.210938 145.011719 142.035156 C 140.578125 145.242188 136.386719 146.859375 125.765625 146.859375 C 115.445313 146.859375 110.71875 144.953125 106.789063 142.105469 C 103.070313 139.363281 99.578125 134.433594 98.214844 128.402344 C 97.996094 127.433594 97.488281 125.367188 97.488281 125.367188 L 75.660156 125.367188 L 75.6875 125.828125 C 75.878906 129.875 76.421875 133.484375 77.34375 136.738281 C 79.535156 144.742188 83.859375 150.671875 90.25 155.980469 C 99.523438 163.644531 107.921875 167.0625 123.5625 167.0625 C 140.746094 167.0625 150.707031 163.582031 160.40625 155.734375 C 169.886719 148.09375 174.699219 139.210938 174.699219 125.046875 L 174.699219 37.316406 "/>
</g>
</svg>
