<svg width="36" height="36" viewBox="0 0 36 36" fill="none" xmlns="http://www.w3.org/2000/svg">
<path fill-rule="evenodd" clip-rule="evenodd" d="M25.5192 8.9118L19.0025 2.43961C18.8803 2.31826 18.7148 2.25 18.5417 2.25H4.85664C3.41971 2.25 2.25 3.41105 2.25 4.83889V30.7276C2.25 32.1553 3.41971 33.3164 4.8567 33.3164H23.1035C24.5404 33.3164 25.7101 32.1553 25.7101 30.7275V9.36936C25.7101 9.19747 25.6414 9.03315 25.5192 8.9118ZM19.1932 4.45964L23.4851 8.72217H20.4966C19.7774 8.72217 19.1932 8.14131 19.1932 7.42775V4.45964ZM23.1034 32.0219C23.8224 32.0219 24.4067 31.441 24.4067 30.7275V10.0166H20.4967C19.0597 10.0166 17.89 8.85553 17.89 7.42775V3.54445H4.85659C4.13751 3.54445 3.55327 4.1253 3.55327 4.83886V30.7275C3.55327 31.441 4.13745 32.0219 4.85659 32.0219H23.1034Z" fill="black"/>
<path fill-rule="evenodd" clip-rule="evenodd" d="M21.1485 21.2354H6.81185C6.45164 21.2354 6.16016 21.5248 6.16016 21.8826C6.16016 22.2403 6.45164 22.5298 6.81185 22.5298H21.1486C21.5088 22.5298 21.8003 22.2403 21.8003 21.8826C21.8002 21.5248 21.5087 21.2354 21.1485 21.2354Z" fill="black"/>
<path fill-rule="evenodd" clip-rule="evenodd" d="M21.1485 17.4751H6.81185C6.45164 17.4751 6.16016 17.7646 6.16016 18.1223C6.16016 18.4801 6.45164 18.7696 6.81185 18.7696H21.1486C21.5088 18.7696 21.8003 18.4801 21.8003 18.1223C21.8002 17.7646 21.5087 17.4751 21.1485 17.4751Z" fill="black"/>
<path fill-rule="evenodd" clip-rule="evenodd" d="M21.2315 13.7153H6.89485C6.53464 13.7153 6.24316 14.0048 6.24316 14.3626C6.24316 14.7203 6.53464 15.0098 6.89485 15.0098H21.2316C21.5918 15.0098 21.8833 14.7203 21.8833 14.3626C21.8832 14.0048 21.5918 13.7153 21.2315 13.7153Z" fill="black"/>
<path fill-rule="evenodd" clip-rule="evenodd" d="M15.2417 9.95508H6.89485C6.53464 9.95508 6.24316 10.2446 6.24316 10.6023C6.24316 10.9601 6.53464 11.2496 6.89485 11.2496H15.2418C15.602 11.2496 15.8935 10.9601 15.8935 10.6023C15.8934 10.2446 15.6019 9.95508 15.2417 9.95508Z" fill="black"/>
<path fill-rule="evenodd" clip-rule="evenodd" d="M21.1485 24.9951H6.81185C6.45164 24.9951 6.16016 25.2846 6.16016 25.6424C6.16016 26.0001 6.45164 26.2896 6.81185 26.2896H21.1486C21.5088 26.2896 21.8003 26.0001 21.8003 25.6424C21.8002 25.2846 21.5087 24.9951 21.1485 24.9951Z" fill="black"/>
<circle cx="25.4604" cy="25.4604" r="8.28947" fill="#FFDE00"/>
<path fill-rule="evenodd" clip-rule="evenodd" d="M26.0278 24.8462H24.9823C24.4779 24.8462 24.0675 24.4546 24.0675 23.9731C24.0675 23.4917 24.4779 23.1 24.9823 23.1H27.0734C27.3624 23.1 27.5961 22.877 27.5961 22.6011C27.5961 22.3252 27.3624 22.1022 27.0734 22.1022H25.9625V21.3539C25.9625 21.078 25.7288 20.855 25.4397 20.855C25.1507 20.855 24.917 21.078 24.917 21.3539V22.1087C23.8668 22.1422 23.022 22.9633 23.022 23.9731C23.022 25.0044 23.9018 25.844 24.9823 25.844H26.0278C26.4602 25.844 26.812 26.1798 26.812 26.5924C26.812 27.005 26.4602 27.3407 26.0278 27.3407H23.6754C23.3863 27.3407 23.1527 27.5637 23.1527 27.8396C23.1527 28.1155 23.3863 28.3385 23.6754 28.3385H24.917V28.8374C24.917 29.1133 25.1507 29.3363 25.4397 29.3363C25.7288 29.3363 25.9625 29.1133 25.9625 28.8374V28.3385H26.0278C27.0368 28.3385 27.8575 27.5553 27.8575 26.5924C27.8575 25.6295 27.0368 24.8462 26.0278 24.8462Z" fill="black"/>
</svg>
